<?xml version="1.0" encoding="UTF-8"?><svg id="Layer_1" xmlns="http://www.w3.org/2000/svg" viewBox="0 0 1502.62 749.99"><defs><style>.cls-1{fill:none;stroke:#cccccb;stroke-miterlimit:10;stroke-width:9px;}</style></defs><path class="cls-1" d="M14.29,59.89s20.41,53.17,8.88,92.78c-11.54,39.62-17.75,50.04-8.88,67.76s4.65,43.79,4.1,50.04,2.97,22.94,8.31,29.19c5.34,6.26.9,21.89,5.34,27.11,4.44,5.21,23.08,11.47,27.51,32.32,4.44,20.85,18.64,51.22,28.4,60.53s12.43,3.06,16.86,20.78,23.96,9.75,36.39,20.51,10.65,11.81,25.74,19.1,17.75-6.26,23.08,16.68,6.21,25.02,18.64,23.98c12.43-1.04,51.48-6.26,51.48-6.26,0,0,10.65,8.34,30.18,15.64,19.53,7.3,63.01,23.98,63.01,23.98,0,0,5.33,1.04,20.41,0,15.09-1.04,55.03.46,55.03.46,0,0,6.21-9.85,34.61-9.85s21.3,3.13,39.94,21.89c18.64,18.77,8.88,39.62,36.39,44.83,27.51,5.21,31.06-7.3,49.7-8.34,18.64-1.04.89-31.28,26.63,1.04,25.74,32.32,12.43,29.19,34.61,61.51,22.19,32.32,22.19,41.7,40.83,44.83,18.64,3.13,34.61,17.72,23.96-18.77-10.65-36.49,61.24-85.49,86.09-84.44s39.05,3.13,63.9,5.21,55.03,15.64,65.68,9.38c10.65-6.26-15.98-29.19,24.85-36.49,40.83-7.3,62.13,7.3,79.88,15.64,17.75,8.34,8.88,3.13,28.4,3.13s26.63,21.89,27.51,51.08,37.28,67.76,47.04,75.06c9.76,7.3,6.21,9.38,11.54,14.6,5.33,5.21,22.19-20.85,9.76-55.25-12.43-34.4-15.98-53.17-24.85-74.02-8.88-20.85-36.39-56.3,37.28-107.38,73.66-51.08,95.85-79.23,97.63-99.04,1.78-19.81-.89-31.28-6.21-47.96-5.33-16.68,16.86-10.43,34.61-40.66,17.75-30.23,65.68-56.3,100.29-65.68,34.61-9.38,14.1-15.17,9.76-20.73-4.34-5.56-9.47-28.73,2.37-41.24,11.83-12.51,86.38-36.6,87.17-43.55.79-6.95-27.81-51.55-26.03-61.97,1.78-10.43,16.86-16.68-7.99-19.81-24.85-3.13-38.16,2.09-40.83,19.81s-36.39,46.91-63.9,52.13-85.2,7.3-98.51,25.02c-13.31,17.72-155.31,100.08-168.63,77.15-13.31-22.94,7.1-34.4,7.99-38.57.89-4.17,7.1-14.6-10.65-43.79,0,0-19.62-41.82-36.98-42.28-17.36-.46-42.14,18.53-42.14,18.53,0,0-13.08,17.61-10.71,49.11,2.37,31.51-14.99,62.55-22.88,53.28s-21.3-37.07-12.62-60.23c8.68-23.17,6.31-52.36,17.75-57.92,11.44-5.56,59.56-8.34,70.61-14.83,11.04-6.49-5.52-21.78-18.54-20.39-13.02,1.39-22.88,16.68-47.73,5.56s-54.04-26.41-60.35-37.07c-6.31-10.66-38.06-20.97-83.33-26.18-45.26-5.21-65.68,18.77-68.34-7.3-2.66-26.06-14.2-10.43-14.2-10.43L51.86,17.49s25.74,22.94,18.64,39.62c-7.1,16.68-1.78,19.81-11.54,13.55s-11.54-8.34-7.1-15.64c4.44-7.3,8.88-11.47-5.33-14.6-14.2-3.13-36.45-9.38-36.45-9.38,0,0-10.58,1.04-2.6,12.51,7.99,11.47,6.8,16.33,6.8,16.33Z"/></svg>